<svg width="366" height="366" viewBox="0 0 366 366" fill="none" xmlns="http://www.w3.org/2000/svg">
<mask id="mask0_64_8" style="mask-type:luminance" maskUnits="userSpaceOnUse" x="0" y="0" width="366" height="366">
<path d="M0 0H366V366H0V0Z" fill="white"/>
</mask>
<g mask="url(#mask0_64_8)">
<path d="M183.137 366.278C134.51 366.278 88.6009 347.149 53.8604 312.418C19.1331 277.677 0 231.768 0 183.137C0 136.35 17.9064 91.6942 50.4097 57.4037C85.0046 20.9246 133.389 0 183.137 0C194.354 0 203.448 9.0944 203.448 20.3113C203.448 31.5281 194.354 40.6225 183.137 40.6225C144.478 40.6225 106.847 56.936 79.8904 85.3621C54.5664 112.067 40.6181 146.794 40.6181 183.137C40.6181 220.909 55.5195 256.616 82.5821 283.678C109.649 310.745 145.356 325.647 183.128 325.647C219.47 325.647 254.193 311.698 280.903 286.374C308.852 259.868 325.086 223.058 325.625 185.105C325.21 173.464 315.604 164.114 303.866 164.114C291.864 164.114 282.09 173.888 282.09 185.89C282.09 212.918 271.473 238.422 252.181 257.706C232.898 276.989 207.393 287.614 180.366 287.614C124.268 287.614 78.6416 241.979 78.6416 185.89C78.6416 159.097 89.1084 133.751 108.105 114.521C127.441 94.9507 153.105 84.1662 180.366 84.1662C191.583 84.1662 200.681 93.2606 200.681 104.478C200.681 115.694 191.583 124.793 180.366 124.793C164.048 124.793 148.648 131.284 137.007 143.07C125.565 154.649 119.269 169.855 119.269 185.89C119.269 219.585 146.68 246.987 180.366 246.987C196.538 246.987 211.841 240.593 223.459 228.984C235.078 217.365 241.472 202.062 241.472 185.89C241.472 151.485 269.47 123.491 303.875 123.491C337.353 123.491 364.769 149.994 366.212 183.128H366.274L366.252 185.89C365.493 234.667 344.674 281.9 308.861 315.859C274.584 348.372 229.933 366.278 183.137 366.278Z" fill="#F0F1FF"/>
</g>
</svg>
